<?xml version="1.0" standalone="no"?>
<!DOCTYPE svg PUBLIC "-//W3C//DTD SVG 20010904//EN"
 "http://www.w3.org/TR/2001/REC-SVG-20010904/DTD/svg10.dtd">
<svg version="1.0" xmlns="http://www.w3.org/2000/svg"
 width="124.000000pt" height="124.000000pt" viewBox="0 0 124.000000 124.000000"
 preserveAspectRatio="xMidYMid meet">
<metadata>
Created by potrace 1.14, written by Peter Selinger 2001-2017
</metadata>
<g transform="translate(0.000000,124.000000) scale(0.100000,-0.100000)"
fill="#000000" stroke="none">
<path d="M538 1222 c-45 -4 -50 -17 -9 -20 113 -9 203 -114 203 -236 -1 -76
-5 -93 -37 -164 -47 -102 -104 -183 -237 -336 -15 -17 -30 -39 -34 -48 -3 -10
-9 -18 -14 -18 -15 0 -40 -80 -40 -127 0 -104 94 -209 215 -240 108 -27 175
-24 268 11 292 110 450 449 351 752 -70 217 -248 374 -473 419 -39 8 -139 12
-193 7z m213 -655 c98 -66 68 -201 -51 -226 l-32 -6 53 -37 c71 -47 106 -64
152 -71 42 -7 135 14 172 39 43 28 29 -3 -25 -57 -109 -109 -303 -157 -434
-109 -84 32 -136 96 -136 167 0 49 52 103 103 105 20 1 37 2 37 3 0 2 -7 16
-15 31 -30 59 -10 129 48 164 42 26 86 25 128 -3z"/>
<path d="M390 1181 c-64 -24 -151 -82 -204 -135 -161 -158 -222 -411 -151
-621 46 -138 128 -248 242 -326 l48 -33 -47 53 c-57 63 -88 149 -82 225 4 55
40 139 74 174 12 13 20 24 19 25 -2 2 -24 9 -48 17 -77 26 -106 91 -72 159 15
28 31 43 62 55 40 16 45 16 82 0 40 -18 77 -73 72 -106 -3 -16 -1 -16 15 -5
28 20 93 105 128 167 36 65 62 149 62 199 -1 78 -73 172 -131 171 -13 -1 -44
-9 -69 -19z"/>
</g>
</svg>
